<svg width="17" height="18" viewBox="0 0 17 18" fill="none" xmlns="http://www.w3.org/2000/svg">
<path d="M4.55357 0C5.05826 0 5.46429 0.40125 5.46429 0.9V2.4H11.5357V0.9C11.5357 0.40125 11.9417 0 12.4464 0C12.9511 0 13.3571 0.40125 13.3571 0.9V2.4H14.5714C15.9109 2.4 17 3.47625 17 4.8V15.6C17 16.9237 15.9109 18 14.5714 18H2.42857C1.08906 18 0 16.9237 0 15.6V4.8C0 3.47625 1.08906 2.4 2.42857 2.4H3.64286V0.9C3.64286 0.40125 4.04888 0 4.55357 0ZM14.5714 16.2C14.9054 16.2 15.1786 15.93 15.1786 15.6V13.2H11.8393V16.2H14.5714ZM15.1786 11.4V8.4H11.8393V11.4H15.1786ZM10.0179 11.4V8.4H6.98214V11.4H10.0179ZM5.16071 11.4V8.4H1.82143V11.4H5.16071ZM1.82143 13.2V15.6C1.82143 15.93 2.09464 16.2 2.42857 16.2H5.16071V13.2H1.82143ZM6.98214 13.2V16.2H10.0179V13.2H6.98214ZM4.55357 4.2H2.42857C2.09464 4.2 1.82143 4.47 1.82143 4.8V6.6H15.1786V4.8C15.1786 4.47 14.9054 4.2 14.5714 4.2H4.55357Z" fill="#494949"/>
</svg>
