<svg width="29" height="31" viewBox="0 0 29 31" fill="none" xmlns="http://www.w3.org/2000/svg">
<path d="M10.8894 1.43438C11.0582 0.601875 11.7951 0 12.6501 0H16.0138C16.8688 0 17.6057 0.601875 17.7744 1.43438L18.5901 5.37188C19.3832 5.70938 20.1257 6.1425 20.8007 6.65438L24.6144 5.38875C25.4244 5.11875 26.3132 5.45625 26.7407 6.19875L28.4226 9.1125C28.8501 9.855 28.6982 10.7888 28.0569 11.3569L25.0588 14.0231C25.1094 14.4394 25.1319 14.8669 25.1319 15.3C25.1319 15.7331 25.1038 16.1606 25.0588 16.5769L28.0626 19.2488C28.7038 19.8169 28.8501 20.7563 28.4282 21.4931L26.7463 24.4069C26.3188 25.1438 25.4301 25.4869 24.6201 25.2169L20.8063 23.9513C20.1257 24.4631 19.3832 24.8906 18.5957 25.2338L17.7857 29.1656C17.6113 30.0038 16.8744 30.6 16.0251 30.6H12.6613C11.8063 30.6 11.0694 29.9981 10.9007 29.1656L10.0907 25.2338C9.29755 24.8963 8.56068 24.4631 7.88005 23.9513L4.04943 25.2169C3.23943 25.4869 2.35068 25.1494 1.92318 24.4069L0.241303 21.4931C-0.186197 20.7506 -0.0343217 19.8169 0.606928 19.2488L3.61068 16.5769C3.56005 16.1606 3.53755 15.7331 3.53755 15.3C3.53755 14.8669 3.56568 14.4394 3.61068 14.0231L0.606928 11.3513C-0.0343217 10.7831 -0.180572 9.84375 0.241303 9.10688L1.92318 6.19313C2.35068 5.45063 3.23943 5.11313 4.04943 5.38313L7.86318 6.64875C8.5438 6.13688 9.2863 5.70937 10.0738 5.36625L10.8894 1.43438ZM14.3319 19.8C16.8182 19.7888 18.8263 17.7694 18.8151 15.2831C18.8038 12.7969 16.7844 10.7888 14.2982 10.8C11.8119 10.8113 9.8038 12.8306 9.81505 15.3169C9.8263 17.8031 11.8457 19.8113 14.3319 19.8Z" fill="#6F6F6F"/>
</svg>
