<svg width="70" height="71" viewBox="0 0 70 71" fill="none" xmlns="http://www.w3.org/2000/svg">
<path d="M18.2188 28.4C17.75 26.906 17.5 25.3085 17.5 23.6667C17.5 14.5106 25.3281 7.1 35 7.1C44.6719 7.1 52.5 14.5106 52.5 23.6667C52.5 25.3085 52.25 26.906 51.7812 28.4H40.6875L44.5312 21.8473C45.5312 20.1315 44.8906 17.9719 43.0781 17.0252C41.2656 16.0785 38.9844 16.685 37.9844 18.4008L32.1094 28.4148H18.2344L18.2188 28.4ZM20 4.73333H10C4.48438 4.73333 0 8.97854 0 14.2V61.5333C0 66.7548 4.48438 71 10 71H60C65.5156 71 70 66.7548 70 61.5333V14.2C70 8.97854 65.5156 4.73333 60 4.73333H50C45.8281 1.76021 40.625 0 35 0C29.375 0 24.1719 1.76021 20 4.73333Z" fill="#0087E9" fill-opacity="0.9"/>
</svg>
