<svg width="17" height="18" viewBox="0 0 17 18" fill="none" xmlns="http://www.w3.org/2000/svg">
<path d="M4.42455 7.2C4.31071 6.82125 4.25 6.41625 4.25 6C4.25 3.67875 6.15112 1.8 8.5 1.8C10.8489 1.8 12.75 3.67875 12.75 6C12.75 6.41625 12.6893 6.82125 12.5754 7.2H9.88125L10.8147 5.53875C11.0576 5.10375 10.902 4.55625 10.4618 4.31625C10.0217 4.07625 9.46763 4.23 9.22478 4.665L7.79799 7.20375H4.42835L4.42455 7.2ZM4.85714 1.2H2.42857C1.08906 1.2 0 2.27625 0 3.6V15.6C0 16.9237 1.08906 18 2.42857 18H14.5714C15.9109 18 17 16.9237 17 15.6V3.6C17 2.27625 15.9109 1.2 14.5714 1.2H12.1429C11.1297 0.44625 9.86607 0 8.5 0C7.13393 0 5.87031 0.44625 4.85714 1.2Z" fill="#CEC9C9"/>
</svg>
